<svg width="25" height="24" viewBox="0 0 25 24" fill="none" xmlns="http://www.w3.org/2000/svg">
<path fill-rule="evenodd" clip-rule="evenodd" d="M12.5 3.00049C12.7652 3.00054 13.0195 3.10594 13.207 3.29349L20.207 10.2935C20.3892 10.4821 20.49 10.7347 20.4877 10.9969C20.4854 11.2591 20.3802 11.5099 20.1948 11.6953C20.0094 11.8807 19.7586 11.9859 19.4964 11.9882C19.2342 11.9904 18.9816 11.8896 18.793 11.7075L13.5 6.41449V20.0005C13.5 20.2657 13.3947 20.5201 13.2071 20.7076C13.0196 20.8951 12.7652 21.0005 12.5 21.0005C12.2348 21.0005 11.9804 20.8951 11.7929 20.7076C11.6054 20.5201 11.5 20.2657 11.5 20.0005V6.41449L6.20701 11.7075C6.01841 11.8896 5.76581 11.9904 5.50361 11.9882C5.24141 11.9859 4.9906 11.8807 4.80519 11.6953C4.61978 11.5099 4.51461 11.2591 4.51234 10.9969C4.51006 10.7347 4.61085 10.4821 4.79301 10.2935L11.793 3.29349C11.9805 3.10594 12.2348 3.00054 12.5 3.00049Z" fill="#F62A3A"/>
</svg>
