<svg width="32" height="32" viewBox="0 0 32 32" fill="none" xmlns="http://www.w3.org/2000/svg">
<path d="M16 3C15.376 3 14.752 3.213 14.22 3.594L12.56 4.75L10.656 5H10.626L10.594 5.03C9.9679 5.17095 9.39467 5.48672 8.94096 5.94061C8.48725 6.39449 8.1717 6.96785 8.031 7.594L8.001 7.624V7.656L7.751 9.594L6.595 11.094L6.563 11.124V11.156C5.865 12.274 5.833 13.716 6.595 14.781L7.78 16.44L8.094 18.158L4.874 23.065L3.844 24.595H8.625L9.781 27.283L10.501 29.003L11.531 27.44L14.689 22.69C15.535 23.04 16.495 23.07 17.313 22.69L20.47 27.44L21.5 29L22.22 27.28L23.375 24.594H28.156L27.126 23.062L24 18.313L24.25 16.438L25.406 14.782L25.438 14.752V14.722C26.136 13.602 26.168 12.194 25.406 11.127L24.25 9.47L23.875 7.594H23.905C23.905 7.569 23.878 7.554 23.875 7.531C23.695 6.224 22.658 5.161 21.345 5.001H21.313L19.438 4.751L17.781 3.595C17.2638 3.216 16.6412 3.00799 16 3ZM16 5.03C16.23 5.03 16.458 5.1 16.625 5.22L18.405 6.5L18.625 6.656L18.875 6.688L21.063 7H21.093C21.541 7.05 21.857 7.365 21.906 7.813V7.875L22.313 10.095L22.343 10.312L22.5 10.5L23.78 12.28C24.02 12.615 24.05 13.174 23.75 13.656L22.5 15.406L22.344 15.626L22.312 15.876L22 18.062V18.092C21.9844 18.2485 21.9309 18.3989 21.844 18.53L21.781 18.562V18.594C21.632 18.7719 21.419 18.884 21.188 18.906H21.126L18.846 19.313L18.596 19.343L18.406 19.5L16.626 20.78C16.293 21.02 15.702 21.05 15.22 20.75L13.594 19.5L13.406 19.344L13.126 19.312L10.937 19H10.905C10.7635 18.9884 10.6269 18.9425 10.5072 18.8662C10.3875 18.7898 10.2882 18.6854 10.218 18.562C10.1509 18.4469 10.1081 18.3193 10.092 18.187V18.125L9.686 15.845L9.654 15.595L9.498 15.405L8.218 13.625C7.978 13.292 7.948 12.701 8.248 12.219L9.498 10.593L9.654 10.405L9.684 10.125L9.967 8.03C9.969 8.016 9.993 8.015 9.997 8C10.0597 7.75946 10.1855 7.54 10.3612 7.36423C10.537 7.18845 10.7565 7.06273 10.997 7C11.012 6.996 11.013 6.972 11.027 6.97L13.122 6.688L13.372 6.656L13.592 6.5L15.372 5.22C15.539 5.1 15.768 5.03 15.997 5.03H16ZM22.906 20.25L24.438 22.594H22.03L21.78 23.219L21.094 24.812L18.969 21.562L19.437 21.218L21.405 20.873V20.903C21.43 20.903 21.445 20.876 21.468 20.873C21.9939 20.7968 22.4898 20.5809 22.904 20.248L22.906 20.25ZM9.094 20.28C9.521 20.662 10.061 20.928 10.656 21H10.686L12.594 21.25L13.031 21.594L10.907 24.812L10.22 23.219L9.97 22.593H7.56L9.092 20.28H9.094Z" fill="url(#paint0_linear_201_240)"/>
<defs>
<linearGradient id="paint0_linear_201_240" x1="13.1948" y1="-0.391688" x2="41.5123" y2="23.0295" gradientUnits="userSpaceOnUse">
<stop stop-color="#3465E3"/>
<stop offset="1" stop-color="#F72A3A"/>
</linearGradient>
</defs>
</svg>
