<svg width="32" height="32" viewBox="0 0 32 32" fill="none" xmlns="http://www.w3.org/2000/svg">
<path d="M8.03999 16.04L10.7067 20.6667L7.33332 24.9067L2.66666 16.8267L8.03999 16.04ZM22.6667 24V20.3867C23.84 19.8667 24.6667 18.7067 24.6667 17.3333C24.6667 16.5733 24.4 15.8667 23.96 15.3333L26.5867 13.8C27.9333 13.0133 28.4 11.2933 27.6133 9.94666L25.7733 6.74666C25.3982 6.10001 24.7826 5.62783 24.0609 5.43303C23.3391 5.23823 22.5696 5.33658 21.92 5.70666L11.08 12C9.81332 12.7067 9.37332 14.3333 10.1067 15.6133L12.1067 19.08C12.84 20.3467 14.48 20.7867 15.7467 20.0533L18.2533 18.6133C18.5867 19.4 19.2133 20.04 20 20.3867V24C20 25.4667 21.2 26.6667 22.6667 26.6667H29.3333V24H22.6667Z" fill="url(#paint0_linear_201_210)"/>
<rect x="12.327" y="14.0174" width="12.6288" height="4.17908" rx="1" transform="rotate(-30 12.327 14.0174)" fill="white"/>
<rect x="5.62863" y="18.4578" width="1.22585" height="3.34221" rx="0.612924" transform="rotate(-30 5.62863 18.4578)" fill="white"/>
<defs>
<linearGradient id="paint0_linear_201_210" x1="12.9231" y1="2.55278" x2="36.4539" y2="28.5748" gradientUnits="userSpaceOnUse">
<stop stop-color="#3465E3"/>
<stop offset="1" stop-color="#F72A3A"/>
</linearGradient>
</defs>
</svg>
