<svg width="14" height="14" viewBox="0 0 14 14" fill="none" xmlns="http://www.w3.org/2000/svg">
<path fill-rule="evenodd" clip-rule="evenodd" d="M1.51647 7.00049C1.51647 5.58593 2.0784 4.22931 3.07865 3.22907C4.07889 2.22882 5.43551 1.66689 6.85006 1.66689C8.26462 1.66689 9.62124 2.22882 10.6215 3.22907C11.6217 4.22931 12.1837 5.58593 12.1837 7.00049C12.1837 8.41504 11.6217 9.77166 10.6215 10.7719C9.62124 11.7722 8.26462 12.3341 6.85006 12.3341C5.43551 12.3341 4.07889 11.7722 3.07865 10.7719C2.0784 9.77166 1.51647 8.41504 1.51647 7.00049ZM6.85006 0.333496C3.16789 0.333496 0.183075 3.31831 0.183075 7.00049C0.183075 10.6827 3.16789 13.6675 6.85006 13.6675C10.5322 13.6675 13.5171 10.6827 13.5171 7.00049C13.5171 3.31831 10.5322 0.333496 6.85006 0.333496ZM7.51676 3.00029C7.51676 2.82347 7.44652 2.6539 7.32149 2.52887C7.19646 2.40383 7.02688 2.33359 6.85006 2.33359C6.67324 2.33359 6.50367 2.40383 6.37864 2.52887C6.25361 2.6539 6.18336 2.82347 6.18336 3.00029V7.00049C6.1834 7.17729 6.25367 7.34684 6.37871 7.47184L8.3788 9.47194C8.50454 9.59339 8.67295 9.66058 8.84776 9.65907C9.02257 9.65755 9.18978 9.58743 9.31339 9.46382C9.43701 9.34021 9.50712 9.17299 9.50864 8.99819C9.51016 8.82338 9.44296 8.65497 9.32152 8.52923L7.51676 6.72447V3.00029Z" fill="#117DC2"/>
</svg>
