<svg width="24" height="24" viewBox="0 0 24 24" fill="none" xmlns="http://www.w3.org/2000/svg">
<path d="M12.7782 2.77808C12.7782 2.22579 12.3305 1.77808 11.7782 1.77808C11.2259 1.77808 10.7782 2.22579 10.7782 2.77808L10.7782 10.7781L2.77818 10.7781C2.22589 10.7781 1.77818 11.2258 1.77818 11.7781C1.77818 12.3304 2.22589 12.7781 2.77818 12.7781L10.7782 12.7781V20.7781C10.7782 21.3304 11.2259 21.7781 11.7782 21.7781C12.3305 21.7781 12.7782 21.3304 12.7782 20.7781V12.7781L20.7782 12.7781C21.3305 12.7781 21.7782 12.3304 21.7782 11.7781C21.7782 11.2258 21.3305 10.7781 20.7782 10.7781L12.7782 10.7781L12.7782 2.77808Z" fill="#F72A3A"/>
</svg>
