<svg width="16" height="16" viewBox="0 0 16 16" fill="none" xmlns="http://www.w3.org/2000/svg">
<path d="M2.12132 0.707107C1.7308 0.316582 1.09763 0.316582 0.707107 0.707107V0.707107C0.316582 1.09763 0.316582 1.7308 0.707107 2.12132L6.36396 7.77817L0.707107 13.435C0.316582 13.8256 0.316582 14.4587 0.707107 14.8492V14.8492C1.09763 15.2398 1.7308 15.2398 2.12132 14.8492L7.77817 9.19239L13.435 14.8492C13.8256 15.2398 14.4587 15.2398 14.8492 14.8492V14.8492C15.2398 14.4587 15.2398 13.8256 14.8492 13.435L9.19239 7.77817L14.8492 2.12132C15.2398 1.7308 15.2398 1.09763 14.8492 0.707107V0.707107C14.4587 0.316583 13.8256 0.316582 13.435 0.707107L7.77817 6.36396L2.12132 0.707107Z" fill="white"/>
</svg>
