<svg width="32" height="32" viewBox="0 0 32 32" fill="none" xmlns="http://www.w3.org/2000/svg">
<path d="M26.2667 17.2L18.6667 24.8H15.6V21.7333L23.2 14.1333L26.2667 17.2ZM30.8 16.1333C30.8 16.5333 30.4 16.9333 30 17.3333L26.6667 20.6666L25.4667 19.4666L28.9333 16L28.1333 15.2L27.2 16.1333L24.1333 13.0666L27.0667 10.2666C27.3333 9.99996 27.8667 9.99996 28.2667 10.2666L30.1333 12.1333C30.4 12.4 30.4 12.9333 30.1333 13.3333C29.8667 13.6 29.6 13.8666 29.6 14.1333C29.6 14.4 29.8667 14.6666 30.1333 14.9333C30.5333 15.3333 30.9333 15.7333 30.8 16.1333ZM4.00001 26.6666V5.33329H13.3333V12H20V14L22.6667 11.3333V10.6666L14.6667 2.66663H4.00001C2.53334 2.66663 1.33334 3.86663 1.33334 5.33329V26.6666C1.33334 28.1333 2.53334 29.3333 4.00001 29.3333H20C21.4667 29.3333 22.6667 28.1333 22.6667 26.6666H4.00001ZM14.6667 22.8C14.4 22.8 14.1333 22.9333 14 22.9333L13.3333 20H11.3333L8.53334 22.2666L9.33334 18.6666H7.33334L6.00001 25.3333H8.00001L11.8667 21.8666L12.6667 24.9333H14L14.6667 24.8V22.8Z" fill="url(#paint0_linear_201_226)"/>
<defs>
<linearGradient id="paint0_linear_201_226" x1="12.6767" y1="-0.811627" x2="42.2348" y2="28.1071" gradientUnits="userSpaceOnUse">
<stop stop-color="#3465E3"/>
<stop offset="1" stop-color="#F72A3A"/>
</linearGradient>
</defs>
</svg>
