<svg width="12" height="16" viewBox="0 0 12 16" fill="none" xmlns="http://www.w3.org/2000/svg">
<path d="M6.00663 3.75C5.4627 3.75 4.93099 3.91128 4.47873 4.21346C4.02648 4.51563 3.67399 4.94512 3.46583 5.44762C3.25768 5.95012 3.20322 6.50305 3.30934 7.0365C3.41545 7.56995 3.67738 8.05995 4.06199 8.44454C4.4466 8.82914 4.93663 9.09105 5.4701 9.19716C6.00357 9.30327 6.55653 9.24881 7.05906 9.04067C7.56158 8.83253 7.99109 8.48005 8.29328 8.02782C8.59547 7.57558 8.75676 7.0439 8.75676 6.5C8.75511 5.77116 8.46483 5.07265 7.94944 4.55728C7.43405 4.04191 6.7355 3.75165 6.00663 3.75ZM6.00663 7.75C5.75939 7.75 5.5177 7.67669 5.31213 7.53934C5.10656 7.40199 4.94633 7.20676 4.85172 6.97835C4.75711 6.74995 4.73235 6.49861 4.78058 6.25614C4.82882 6.01366 4.94788 5.79093 5.1227 5.61612C5.29752 5.4413 5.52026 5.32225 5.76275 5.27402C6.00524 5.22579 6.25658 5.25054 6.485 5.34515C6.71342 5.43976 6.90865 5.59998 7.04601 5.80554C7.18337 6.0111 7.25669 6.25277 7.25669 6.5C7.25504 6.83101 7.12281 7.148 6.88874 7.38207C6.65466 7.61613 6.33766 7.74836 6.00663 7.75ZM6.00663 0.75C4.48207 0.751654 3.02042 1.35799 1.94239 2.43596C0.864365 3.51394 0.258002 4.97551 0.256348 6.5C0.256348 11.3375 5.36284 14.9625 5.57535 15.1125C5.7013 15.2021 5.85204 15.2503 6.00663 15.2503C6.16121 15.2503 6.31195 15.2021 6.4379 15.1125C7.40414 14.4019 8.28874 13.5865 9.07552 12.6812C10.8319 10.6625 11.7569 8.525 11.7569 6.5C11.7552 4.97551 11.1489 3.51394 10.0709 2.43596C8.99283 1.35799 7.53119 0.751654 6.00663 0.75ZM7.96297 11.6687C7.36744 12.354 6.71281 12.9856 6.00663 13.5562C5.30045 12.9856 4.64581 12.354 4.05028 11.6687C3.00648 10.4625 1.75642 8.58125 1.75642 6.5C1.75642 5.37283 2.20421 4.29183 3.00128 3.4948C3.79834 2.69777 4.8794 2.25 6.00663 2.25C7.13385 2.25 8.21491 2.69777 9.01197 3.4948C9.80904 4.29183 10.2568 5.37283 10.2568 6.5C10.2568 8.58125 9.01302 10.4625 7.96297 11.6687Z" fill="url(#paint0_linear_201_39)"/>
<defs>
<linearGradient id="paint0_linear_201_39" x1="4.67964" y1="-1.14134" x2="19.7968" y2="9.46507" gradientUnits="userSpaceOnUse">
<stop stop-color="#3465E3"/>
<stop offset="1" stop-color="#F72A3A"/>
</linearGradient>
</defs>
</svg>
