<svg width="32" height="32" viewBox="0 0 32 32" fill="none" xmlns="http://www.w3.org/2000/svg">
<path d="M28.1333 16.6667L30 18.5467L21.2933 27.3334L16.6667 22.6667L18.5333 20.7867L21.2933 23.56L28.1333 16.6667ZM14.6667 5.33337C16.0812 5.33337 17.4377 5.89528 18.4379 6.89547C19.4381 7.89567 20 9.25222 20 10.6667C20 12.0812 19.4381 13.4378 18.4379 14.4379C17.4377 15.4381 16.0812 16 14.6667 16C13.2522 16 11.8956 15.4381 10.8954 14.4379C9.89524 13.4378 9.33333 12.0812 9.33333 10.6667C9.33333 9.25222 9.89524 7.89567 10.8954 6.89547C11.8956 5.89528 13.2522 5.33337 14.6667 5.33337ZM14.6667 8.00004C13.9594 8.00004 13.2811 8.28099 12.781 8.78109C12.281 9.28119 12 9.95946 12 10.6667C12 11.374 12.281 12.0522 12.781 12.5523C13.2811 13.0524 13.9594 13.3334 14.6667 13.3334C15.3739 13.3334 16.0522 13.0524 16.5523 12.5523C17.0524 12.0522 17.3333 11.374 17.3333 10.6667C17.3333 9.95946 17.0524 9.28119 16.5523 8.78109C16.0522 8.28099 15.3739 8.00004 14.6667 8.00004ZM14.6667 17.3334C15.5733 17.3334 16.6667 17.4534 17.88 17.68L15.6533 19.9067L14.6667 19.8667C10.7067 19.8667 6.53333 21.8134 6.53333 22.6667V24.1334H14.8L17.3333 26.6667H4V22.6667C4 19.12 11.1067 17.3334 14.6667 17.3334Z" fill="url(#paint0_linear_201_254)"/>
<defs>
<linearGradient id="paint0_linear_201_254" x1="14" y1="2.46382" x2="38.3672" y2="27.9386" gradientUnits="userSpaceOnUse">
<stop stop-color="#3465E3"/>
<stop offset="1" stop-color="#F72A3A"/>
</linearGradient>
</defs>
</svg>
