<svg width="14" height="12" viewBox="0 0 14 12" fill="none" xmlns="http://www.w3.org/2000/svg">
<path fill-rule="evenodd" clip-rule="evenodd" d="M0.546514 1.44545C0.71719 1.20536 0.942692 1.00946 1.20429 0.874026C1.46588 0.738591 1.75601 0.667531 2.05059 0.666748H11.6511C12.2751 0.666748 12.8198 0.980097 13.1551 1.44545C13.3838 1.76413 13.5178 2.15682 13.5178 2.57817V9.42251C13.5178 10.4552 12.7044 11.3339 11.6511 11.3339H2.05059C0.997203 11.3339 0.18383 10.4552 0.18383 9.42251V2.57817C0.18383 2.15682 0.31717 1.76413 0.546514 1.44479V1.44545ZM2.13926 2.00015L6.35746 6.64371C6.41995 6.71245 6.49612 6.76738 6.58108 6.80497C6.66604 6.84256 6.75791 6.86198 6.85082 6.86198C6.94372 6.86198 7.0356 6.84256 7.12056 6.80497C7.20552 6.76738 7.28169 6.71245 7.34418 6.64371L11.5624 2.00015H2.13926ZM12.1844 3.29888L8.33089 7.54042C8.14343 7.74666 7.91493 7.91145 7.66005 8.02422C7.40517 8.13698 7.12953 8.19523 6.85082 8.19523C6.57211 8.19523 6.29647 8.13698 6.04159 8.02422C5.78671 7.91145 5.55821 7.74666 5.37075 7.54042L1.51723 3.29888V9.42251C1.51723 9.76519 1.77857 10.0005 2.05059 10.0005H11.6511C11.9231 10.0005 12.1844 9.76519 12.1844 9.42251V3.29888Z" fill="#117DC2"/>
</svg>
