<svg width="32" height="32" viewBox="0 0 32 32" fill="none" xmlns="http://www.w3.org/2000/svg">
<path d="M18.3067 28C18.0722 28.4041 17.7358 28.7396 17.331 28.9727C16.9261 29.2059 16.4672 29.3286 16 29.3286C15.5328 29.3286 15.0738 29.2059 14.669 28.9727C14.2642 28.7396 13.9277 28.4041 13.6933 28M2.66666 10.6667C2.66666 7.73335 3.59999 4.93335 5.33332 2.66669M29.3333 10.6667C29.3333 7.78175 28.3976 4.97464 26.6667 2.66669M24 10.6667C24 8.54496 23.1571 6.51012 21.6568 5.00983C20.1566 3.50954 18.1217 2.66669 16 2.66669C13.8783 2.66669 11.8434 3.50954 10.3431 5.00983C8.84284 6.51012 7.99999 8.54496 7.99999 10.6667C7.99999 20 3.99999 22.6667 3.99999 22.6667H28C28 22.6667 24 20 24 10.6667Z" stroke="url(#paint0_linear_201_268)" stroke-width="3" stroke-linecap="round" stroke-linejoin="round"/>
<defs>
<linearGradient id="paint0_linear_201_268" x1="12.9231" y1="-0.81095" x2="42.2629" y2="25.1481" gradientUnits="userSpaceOnUse">
<stop stop-color="#3465E3"/>
<stop offset="1" stop-color="#F72A3A"/>
</linearGradient>
</defs>
</svg>
