<svg width="20" height="18" viewBox="0 0 20 18" fill="none" xmlns="http://www.w3.org/2000/svg">
<path d="M17.5 2.25003H14.9031L13.6281 0.337531C13.5603 0.232964 13.4672 0.14721 13.3574 0.0882137C13.2476 0.0292171 13.1246 -0.0011137 13 3.12535e-05H7C6.87536 -0.0011137 6.75245 0.0292171 6.64265 0.0882137C6.53285 0.14721 6.43971 0.232964 6.37188 0.337531L5.09687 2.25003H2.5C1.90402 2.2525 1.33316 2.49034 0.911736 2.91177C0.490313 3.33319 0.252468 3.90405 0.25 4.50003V15C0.252468 15.596 0.490313 16.1669 0.911736 16.5883C1.33316 17.0097 1.90402 17.2476 2.5 17.25H17.5C18.096 17.2476 18.6668 17.0097 19.0883 16.5883C19.5097 16.1669 19.7475 15.596 19.75 15V4.50003C19.7475 3.90405 19.5097 3.33319 19.0883 2.91177C18.6668 2.49034 18.096 2.2525 17.5 2.25003ZM18.25 15C18.25 15.1989 18.171 15.3897 18.0303 15.5304C17.8897 15.671 17.6989 15.75 17.5 15.75H2.5C2.30109 15.75 2.11032 15.671 1.96967 15.5304C1.82902 15.3897 1.75 15.1989 1.75 15V4.50003C1.75 4.30112 1.82902 4.11035 1.96967 3.9697C2.11032 3.82905 2.30109 3.75003 2.5 3.75003H5.5C5.62464 3.75118 5.74755 3.72084 5.85735 3.66185C5.96715 3.60285 6.06029 3.5171 6.12812 3.41253L7.40313 1.50003H12.5969L13.8719 3.41253C13.9397 3.5171 14.0328 3.60285 14.1426 3.66185C14.2524 3.72084 14.3754 3.75118 14.5 3.75003H17.5C17.6989 3.75003 17.8897 3.82905 18.0303 3.9697C18.171 4.11035 18.25 4.30112 18.25 4.50003V15ZM10 5.25003C9.18415 5.25003 8.38663 5.49196 7.70827 5.94522C7.02992 6.39848 6.50121 7.04272 6.189 7.79646C5.87679 8.55021 5.7951 9.37961 5.95426 10.1798C6.11343 10.9799 6.50629 11.715 7.08318 12.2918C7.66008 12.8687 8.39508 13.2616 9.19525 13.4208C9.99542 13.5799 10.8248 13.4982 11.5786 13.186C12.3323 12.8738 12.9766 12.3451 13.4298 11.6668C13.8831 10.9884 14.125 10.1909 14.125 9.37503C14.125 8.28101 13.6904 7.2318 12.9168 6.45822C12.1432 5.68463 11.094 5.25003 10 5.25003ZM10 12C9.48082 12 8.97331 11.8461 8.54163 11.5576C8.10995 11.2692 7.7735 10.8592 7.57482 10.3796C7.37614 9.89992 7.32415 9.37212 7.42544 8.86292C7.52672 8.35372 7.77673 7.88599 8.14384 7.51888C8.51096 7.15176 8.97869 6.90176 9.48789 6.80047C9.99709 6.69918 10.5249 6.75117 11.0045 6.94985C11.4842 7.14853 11.8942 7.48498 12.1826 7.91666C12.471 8.34834 12.625 8.85585 12.625 9.37503C12.6225 10.0705 12.3452 10.7367 11.8534 11.2285C11.3617 11.7202 10.6954 11.9976 10 12Z" fill="black"/>
</svg>
