<svg width="24" height="28" viewBox="0 0 24 28" fill="none" xmlns="http://www.w3.org/2000/svg">
<path fill-rule="evenodd" clip-rule="evenodd" d="M9.39474 1.51037C7.4205 1.94916 3.15193 2.88684 1.17543 3.31595L0.760986 3.40586L0.792362 7.74366C0.821708 11.7957 0.834977 12.1405 0.99365 12.9789C1.66635 16.5332 3.23872 19.5991 5.66183 22.0812C6.55424 22.9954 7.11033 23.4451 9.6875 25.3372L12.0094 27.0418L14.3305 25.3372C17.0174 23.364 17.3558 23.0927 18.2554 22.1918C20.7183 19.725 22.3497 16.5746 23.0261 12.9789C23.1835 12.1426 23.1971 11.7852 23.2264 7.7449L23.2578 3.40836L21.9458 3.12309C21.2242 2.96621 19.6679 2.6249 18.4874 2.36469C13.4246 1.24844 12.0752 0.959812 11.9486 0.965977C11.8747 0.969568 10.7255 1.21456 9.39474 1.51037ZM14.756 3.49991C16.2288 3.82397 18.3035 4.28055 19.3663 4.51454C20.4293 4.74846 21.3161 4.93991 21.3371 4.93991C21.4127 4.93991 21.3733 10.8177 21.2927 11.5576C20.9766 14.4598 19.8935 17.1481 18.1101 19.457C17.0157 20.874 16.2537 21.5602 13.666 23.4593L12.0057 24.6778L10.349 23.4598C8.32103 21.9687 7.70186 21.4591 6.89609 20.6176C4.61605 18.2364 3.14311 15.1012 2.75771 11.8087C2.67677 11.1172 2.64352 9.97616 2.64352 7.88672C2.64352 6.26596 2.66264 4.93991 2.68598 4.93991C2.73359 4.93991 8.43716 3.6841 10.4874 3.22221C11.2172 3.05776 11.8736 2.9204 11.9462 2.91696C12.0188 2.91345 13.2832 3.17577 14.756 3.49991ZM11.0619 6.91095C10.2242 7.2041 9.52618 7.88711 9.22826 8.7049C9.15388 8.90916 9.09066 9.43318 9.0646 10.063L9.02206 11.0886L8.55291 11.1225C7.76329 11.1796 7.79474 11.0535 7.79474 14.1618V16.8104L7.98635 17.002L8.17788 17.1936H12.0094H15.8409L16.0324 17.002L16.224 16.8104V14.1618C16.224 11.0484 16.2573 11.1798 15.4552 11.1217L14.9752 11.087L14.9748 10.3744C14.9739 8.94444 14.7586 8.31115 14.0257 7.58194C13.2445 6.80481 12.1034 6.54646 11.0619 6.91095ZM12.7669 8.42315C12.8819 8.509 13.0833 8.71193 13.2146 8.87411C13.4477 9.16196 13.4539 9.19169 13.4808 10.1373L13.5084 11.1058H12.011H10.5137L10.5396 10.1436C10.5635 9.25406 10.5812 9.15767 10.7737 8.86709C11.0697 8.42034 11.5344 8.20133 12.108 8.23817C12.3999 8.25698 12.6312 8.32184 12.7669 8.42315ZM12.5271 12.8831C12.9396 13.2173 12.9879 13.7735 12.6388 14.1711L12.4095 14.4321L12.5307 14.9133C12.7015 15.591 12.6713 15.6326 12.0094 15.6326C11.3474 15.6326 11.3172 15.591 11.488 14.9133L11.6092 14.4321L11.38 14.1711C10.8631 13.5823 11.232 12.7482 12.0094 12.7482C12.2259 12.7482 12.4244 12.8 12.5271 12.8831Z" fill="url(#paint0_linear_201_248)"/>
<defs>
<linearGradient id="paint0_linear_201_248" x1="9.41359" y1="-2.43531" x2="37.2993" y2="18.847" gradientUnits="userSpaceOnUse">
<stop stop-color="#3465E3"/>
<stop offset="1" stop-color="#F72A3A"/>
</linearGradient>
</defs>
</svg>
