<svg width="32" height="32" viewBox="0 0 32 32" fill="none" xmlns="http://www.w3.org/2000/svg">
<path d="M8 9.19998L5.16 6.37331L7.04 4.49331L9.86667 7.33331L8 9.19998ZM17.3333 1.33331V5.33331H14.6667V1.33331H17.3333ZM26.84 6.37331L24 9.19998L22.1333 7.33331L24.96 4.49331L26.84 6.37331ZM6 14V16.6666H2V14H6ZM26 14H30V16.6666H26V14ZM8 26.6666H24C24.7072 26.6666 25.3855 26.9476 25.8856 27.4477C26.3857 27.9478 26.6667 28.6261 26.6667 29.3333H5.33333C5.33333 28.6261 5.61428 27.9478 6.11438 27.4477C6.61448 26.9476 7.29276 26.6666 8 26.6666ZM16 6.66665C18.1217 6.66665 20.1566 7.5095 21.6569 9.00979C23.1571 10.5101 24 12.5449 24 14.6666V25.3333H8V14.6666C8 12.5449 8.84286 10.5101 10.3431 9.00979C11.8434 7.5095 13.8783 6.66665 16 6.66665ZM16 9.33331C14.5855 9.33331 13.229 9.89522 12.2288 10.8954C11.2286 11.8956 10.6667 13.2522 10.6667 14.6666V22.6666H21.3333V14.6666C21.3333 13.2522 20.7714 11.8956 19.7712 10.8954C18.771 9.89522 17.4145 9.33331 16 9.33331Z" fill="url(#paint0_linear_201_219)"/>
<defs>
<linearGradient id="paint0_linear_201_219" x1="12.7692" y1="-2.31885" x2="43.5808" y2="24.9376" gradientUnits="userSpaceOnUse">
<stop stop-color="#3465E3"/>
<stop offset="1" stop-color="#F72A3A"/>
</linearGradient>
</defs>
</svg>
