<svg width="32" height="32" viewBox="0 0 32 32" fill="none" xmlns="http://www.w3.org/2000/svg">
<path d="M27.9158 11.1456L20.3755 10.4955L17.431 3.60712C16.9013 2.35329 15.0941 2.35329 14.5644 3.60712L11.62 10.5109L4.09521 11.1456C2.72424 11.254 2.16339 12.9567 3.2072 13.8545L8.92476 18.777L7.21105 26.0832C6.89947 27.4145 8.34833 28.4671 9.53235 27.755L15.9977 23.8852L22.4631 27.7705C23.6471 28.4826 25.096 27.43 24.7844 26.0987L23.0707 18.777L28.7882 13.8545C29.832 12.9567 29.2868 11.254 27.9158 11.1456ZM15.9977 20.9905L10.1399 24.5043L11.6979 17.8792L6.52557 13.4211L13.3493 12.8329L15.9977 6.59465L18.6618 12.8483L25.4854 13.4366L20.3132 17.8946L21.8711 24.5198L15.9977 20.9905Z" fill="url(#paint0_linear_201_176)"/>
<defs>
<linearGradient id="paint0_linear_201_176" x1="12.9231" y1="-0.637592" x2="40.9387" y2="25.4499" gradientUnits="userSpaceOnUse">
<stop stop-color="#0E7FE7"/>
<stop offset="1" stop-color="#E70EAA"/>
</linearGradient>
</defs>
</svg>
