<svg width="32" height="32" viewBox="0 0 32 32" fill="none" xmlns="http://www.w3.org/2000/svg">
<path d="M16 2.66675C8.64801 2.66675 2.66667 8.64808 2.66667 16.0001V21.5241C2.66667 22.8894 3.86267 24.0001 5.33334 24.0001H6.66667C7.02029 24.0001 7.35943 23.8596 7.60948 23.6096C7.85953 23.3595 8.00001 23.0204 8.00001 22.6667V15.8094C8.00001 15.4558 7.85953 15.1167 7.60948 14.8666C7.35943 14.6166 7.02029 14.4761 6.66667 14.4761H5.45601C6.19734 9.31608 10.6373 5.33341 16 5.33341C21.3627 5.33341 25.8027 9.31608 26.544 14.4761H25.3333C24.9797 14.4761 24.6406 14.6166 24.3905 14.8666C24.1405 15.1167 24 15.4558 24 15.8094V24.0001C24 25.4707 22.804 26.6667 21.3333 26.6667H18.6667V25.3334H13.3333V29.3334H21.3333C24.2747 29.3334 26.6667 26.9414 26.6667 24.0001C28.1373 24.0001 29.3333 22.8894 29.3333 21.5241V16.0001C29.3333 8.64808 23.352 2.66675 16 2.66675Z" fill="url(#paint0_linear_201_185)"/>
<defs>
<linearGradient id="paint0_linear_201_185" x1="12.9231" y1="-0.811505" x2="42.2674" y2="25.147" gradientUnits="userSpaceOnUse">
<stop stop-color="#0E7FE7"/>
<stop offset="1" stop-color="#E70EAA"/>
</linearGradient>
</defs>
</svg>
