<svg width="30" height="30" viewBox="0 0 30 30" fill="none" xmlns="http://www.w3.org/2000/svg">
<path d="M19.8712 21.165L22.3912 18.645C22.7306 18.3098 23.1601 18.0804 23.6274 17.9845C24.0947 17.8887 24.5797 17.9305 25.0237 18.105L28.095 19.3313C28.5436 19.5134 28.9283 19.8243 29.2006 20.2247C29.4729 20.6251 29.6205 21.0971 29.625 21.5813V27.2063C29.6224 27.5357 29.5531 27.8611 29.4214 28.163C29.2897 28.4649 29.0983 28.7371 28.8586 28.9631C28.619 29.189 28.3361 29.3642 28.027 29.4779C27.7179 29.5917 27.3889 29.6418 27.06 29.625C5.53872 28.2863 1.19622 10.0613 0.374968 3.0863C0.336845 2.74377 0.371676 2.39706 0.477172 2.06897C0.582667 1.74088 0.756435 1.43884 0.987043 1.18272C1.21765 0.926611 1.49987 0.722226 1.81514 0.583018C2.13041 0.443809 2.47159 0.372931 2.81622 0.375046H8.24997C8.73485 0.376481 9.20822 0.522947 9.60919 0.795604C10.0102 1.06826 10.3204 1.45464 10.5 1.90505L11.7262 4.9763C11.9065 5.4185 11.9525 5.90402 11.8585 6.37221C11.7644 6.8404 11.5345 7.2705 11.1975 7.6088L8.67747 10.1288C8.67747 10.1288 10.1287 19.95 19.8712 21.165Z" fill="#E11D48"/>
</svg>
