<svg width="10" height="14" viewBox="0 0 10 14" fill="none" xmlns="http://www.w3.org/2000/svg">
<path d="M0.515869 7.00048V11.6674C0.515869 12.1978 0.726593 12.7066 1.10168 13.0817C1.47677 13.4567 1.98551 13.6675 2.51597 13.6675H7.84956C8.38002 13.6675 8.88875 13.4567 9.26384 13.0817C9.63893 12.7066 9.84965 12.1978 9.84965 11.6674V7.00048H8.51626V11.6674C8.51626 11.8442 8.44601 12.0138 8.32098 12.1388C8.19595 12.2638 8.02638 12.3341 7.84956 12.3341H2.51597C2.33915 12.3341 2.16957 12.2638 2.04454 12.1388C1.91951 12.0138 1.84927 11.8442 1.84927 11.6674V7.00048H0.515869Z" fill="#117DC2"/>
<path d="M0.515869 7.00048V2.33359C0.515869 1.80313 0.726593 1.2944 1.10168 0.919311C1.47677 0.54422 1.98551 0.333496 2.51597 0.333496H7.84956C8.38002 0.333496 8.88875 0.54422 9.26384 0.919311C9.63893 1.2944 9.84965 1.80313 9.84965 2.33359V7.00048H8.51626V2.33359C8.51626 2.15677 8.44601 1.9872 8.32098 1.86216C8.19595 1.73713 8.02638 1.66689 7.84956 1.66689H2.51597C2.33915 1.66689 2.16957 1.73713 2.04454 1.86216C1.91951 1.9872 1.84927 2.15677 1.84927 2.33359V7.00048H0.515869Z" fill="#117DC2"/>
<path d="M3.37794 1.19547C3.50297 1.07044 3.67254 1.00019 3.84936 1.00019H6.51616C6.69298 1.00019 6.86256 1.07044 6.98759 1.19547C7.11262 1.3205 7.18286 1.49007 7.18286 1.66689C7.18286 1.84371 7.11262 2.01329 6.98759 2.13832C6.86256 2.26335 6.69298 2.33359 6.51616 2.33359H3.84936C3.67254 2.33359 3.50297 2.26335 3.37794 2.13832C3.25291 2.01329 3.18266 1.84371 3.18266 1.66689C3.18266 1.49007 3.25291 1.3205 3.37794 1.19547Z" fill="#117DC2"/>
</svg>
