<?xml version="1.0" ?><!DOCTYPE svg  PUBLIC '-//W3C//DTD SVG 1.1//EN'  'http://www.w3.org/Graphics/SVG/1.1/DTD/svg11.dtd'><svg height="512px" style="shape-rendering:geometricPrecision; text-rendering:geometricPrecision; image-rendering:optimizeQuality; fill-rule:evenodd; clip-rule:evenodd" version="1.1" viewBox="0 0 512 512" width="512px" xml:space="preserve" xmlns="http://www.w3.org/2000/svg" xmlns:xlink="http://www.w3.org/1999/xlink" xmlns:xodm="http://www.corel.com/coreldraw/odm/2003"><defs><style type="text/css">
   <![CDATA[
    .fil0 {fill:black}
   ]]>
  </style></defs><g id="Layer_x0020_1"><path class="fil0" d="M256 0.5c141.11,0 255.5,114.39 255.5,255.5 0,141.11 -114.39,255.5 -255.5,255.5 -141.11,0 -255.5,-114.39 -255.5,-255.5 0,-141.11 114.39,-255.5 255.5,-255.5zm118.12 160.68l-37.36 188.38c0,0 -5.23,13.06 -19.6,6.79l-86.61 -66.29c11.64,-10.47 101.95,-91.66 105.9,-95.34 6.1,-5.7 2.31,-9.09 -4.78,-4.78l-133.4 84.71 -51.46 -17.32c0,0 -8.1,-2.88 -8.88,-9.15 -0.79,-6.27 9.14,-9.66 9.14,-9.66l209.8 -82.3c0,0 17.25,-7.58 17.25,4.96z"/></g></svg>