<svg width="36" height="36" viewBox="0 0 36 36" fill="none" xmlns="http://www.w3.org/2000/svg">
<path d="M18 3C14.0227 3 10.2047 4.58133 7.39453 7.39336C4.58148 10.2065 3.00078 14.0217 3 18C3 21.9766 4.58203 25.7946 7.39453 28.6066C10.2047 31.4187 14.0227 33 18 33C21.9773 33 25.7953 31.4187 28.6055 28.6066C31.418 25.7946 33 21.9766 33 18C33 14.0234 31.418 10.2054 28.6055 7.39336C25.7953 4.58133 21.9773 3 18 3Z" fill="url(#paint0_linear_201_459)"/>
<path d="M9.79005 17.8416C14.1635 15.9366 17.0791 14.6805 18.5369 14.0737C22.7041 12.341 23.569 12.0401 24.1338 12.0299C24.258 12.0279 24.5346 12.0586 24.715 12.2045C24.865 12.3275 24.9072 12.4939 24.9283 12.6108C24.9471 12.7275 24.9729 12.9935 24.9518 13.2012C24.7268 15.573 23.7494 21.3288 23.2526 23.9855C23.044 25.1095 22.6291 25.4864 22.2283 25.5232C21.3565 25.6033 20.6955 24.9476 19.8518 24.3947C18.5322 23.5291 17.7869 22.9905 16.5049 22.1461C15.0236 21.1701 15.9846 20.6337 16.8283 19.7571C17.0486 19.5276 20.8877 16.0366 20.9604 15.72C20.9697 15.6804 20.9791 15.5327 20.89 15.4549C20.8033 15.3769 20.6744 15.4036 20.5807 15.4247C20.4471 15.4547 18.34 16.8487 14.2525 19.6066C13.6549 20.0177 13.1135 20.2181 12.626 20.2076C12.0916 20.1961 11.0604 19.9048 10.294 19.6559C9.35646 19.3505 8.6088 19.189 8.67442 18.6703C8.70724 18.4003 9.07989 18.124 9.79005 17.8416Z" fill="white"/>
<defs>
<linearGradient id="paint0_linear_201_459" x1="18" y1="3" x2="18" y2="33" gradientUnits="userSpaceOnUse">
<stop stop-color="#2AABEE"/>
<stop offset="1" stop-color="#229ED9"/>
</linearGradient>
</defs>
</svg>
