<svg width="32" height="32" viewBox="0 0 32 32" fill="none" xmlns="http://www.w3.org/2000/svg">
<path d="M16 2.66669C18.4754 2.66669 20.8493 3.65002 22.5997 5.40036C24.35 7.1507 25.3333 9.52467 25.3333 12C25.3333 14.4754 24.35 16.8493 22.5997 18.5997C20.8493 20.35 18.4754 21.3334 16 21.3334C13.5246 21.3334 11.1507 20.35 9.40034 18.5997C7.65 16.8493 6.66667 14.4754 6.66667 12C6.66667 9.52467 7.65 7.1507 9.40034 5.40036C11.1507 3.65002 13.5246 2.66669 16 2.66669ZM16 5.33335C14.2319 5.33335 12.5362 6.03573 11.286 7.28598C10.0357 8.53622 9.33333 10.2319 9.33333 12C9.33333 13.7681 10.0357 15.4638 11.286 16.7141C12.5362 17.9643 14.2319 18.6667 16 18.6667C16.8755 18.6667 17.7424 18.4942 18.5512 18.1592C19.3601 17.8242 20.095 17.3331 20.714 16.7141C21.3331 16.095 21.8242 15.3601 22.1592 14.5512C22.4942 13.7424 22.6667 12.8755 22.6667 12C22.6667 10.2319 21.9643 8.53622 20.714 7.28598C19.4638 6.03573 17.7681 5.33335 16 5.33335ZM16 8.00002C17.0609 8.00002 18.0783 8.42145 18.8284 9.17159C19.5786 9.92174 20 10.9392 20 12C20 13.0609 19.5786 14.0783 18.8284 14.8284C18.0783 15.5786 17.0609 16 16 16C14.9391 16 13.9217 15.5786 13.1716 14.8284C12.4214 14.0783 12 13.0609 12 12C12 10.9392 12.4214 9.92174 13.1716 9.17159C13.9217 8.42145 14.9391 8.00002 16 8.00002ZM8 29.3334C7.29276 29.3334 6.61448 29.0524 6.11438 28.5523C5.61429 28.0522 5.33333 27.3739 5.33333 26.6667C5.33333 26.16 5.46667 25.6934 5.72 25.2934L8.14667 21.08C10.329 22.9646 13.1166 24.001 16 24C19 24 21.7467 22.8934 23.8533 21.08L26.28 25.2934C26.5333 25.6934 26.6667 26.16 26.6667 26.6667C26.6667 27.3739 26.3857 28.0522 25.8856 28.5523C25.3855 29.0524 24.7072 29.3334 24 29.3334H8Z" fill="url(#paint0_linear_201_261)"/>
<defs>
<linearGradient id="paint0_linear_201_261" x1="13.5385" y1="-0.811566" x2="41.4205" y2="18.9203" gradientUnits="userSpaceOnUse">
<stop stop-color="#0E7FE7"/>
<stop offset="1" stop-color="#E70EAA"/>
</linearGradient>
</defs>
</svg>
