<svg width="32" height="32" viewBox="0 0 32 32" fill="none" xmlns="http://www.w3.org/2000/svg">
<path fill-rule="evenodd" clip-rule="evenodd" d="M9.94599 4.05743C9.7572 4.14789 9.15998 4.64585 8.80864 5.00578C8.10281 5.72881 7.64008 6.47845 7.41743 7.25958C7.34183 7.52486 7.33444 7.64451 7.32332 8.78506L7.31125 10.0227L7.18994 10.2499C7.12326 10.3748 7.06024 10.4771 7.04994 10.4771C7.03964 10.4772 6.98351 10.334 6.92526 10.1589C6.6025 9.1894 5.82425 8.07663 5.38932 7.96288C5.18364 7.90904 4.9714 7.97219 4.81446 8.13389C4.65475 8.29842 4.31465 8.98232 4.14995 9.47023C3.77134 10.5917 3.72638 11.8092 4.03614 12.5525C4.33117 13.2606 5.08571 13.9926 5.93537 14.3949L6.15079 14.497V14.8898C6.15079 15.1058 6.14288 15.2826 6.13322 15.2826C6.12355 15.2826 6.00037 15.2101 5.85943 15.1216C5.12033 14.657 3.76208 14.1542 3.24631 14.1542C2.92231 14.1542 2.66681 14.39 2.66666 14.6892C2.66651 14.9364 2.89905 15.9671 3.10436 16.6294C3.75766 18.7371 4.8281 19.674 6.50423 19.605C6.75284 19.5948 6.98157 19.5763 7.01247 19.5638C7.05503 19.5467 7.12963 19.6599 7.31957 20.0296L7.57043 20.5181L7.31957 20.4451C6.92042 20.3291 6.23141 20.3154 5.73868 20.4138C5.07278 20.5467 4.22889 20.8567 4.0219 21.0445C3.76898 21.274 3.76497 21.499 4.00594 21.9434C4.49796 22.8507 5.20908 23.5768 5.9704 23.9492C6.39202 24.1555 6.73512 24.2401 7.23726 24.2618C8.17504 24.3023 9.13016 24.0364 9.88871 23.5238L10.1236 23.3649L10.4344 23.5918C10.6053 23.7165 10.8989 23.9169 11.0868 24.037C11.2748 24.1571 11.4296 24.2653 11.4309 24.2774C11.4322 24.2895 11.3049 24.3099 11.1479 24.3228C10.2542 24.3962 9.18493 24.7685 8.45006 25.262C7.95849 25.5922 7.82295 25.8101 7.91117 26.1284C7.96104 26.3083 8.11798 26.4408 8.56785 26.6827C10.2316 27.5774 11.9462 27.8806 13.0012 27.4666C13.5143 27.2652 13.9973 26.8927 14.3603 26.4185L14.5518 26.1682L14.8283 26.3539C14.9804 26.456 15.1048 26.5477 15.1048 26.5577C15.1048 26.5676 15.0007 26.6839 14.8736 26.816C14.319 27.392 13.7267 28.3574 13.6921 28.7414C13.662 29.0765 13.9078 29.3334 14.2581 29.3332C14.5744 29.333 14.658 29.2575 14.9129 28.7421C15.14 28.2826 15.4241 27.8786 15.7895 27.4951L15.9976 27.2767L16.2083 27.4951C16.6289 27.9312 16.918 28.3502 17.126 28.8253C17.3025 29.2281 17.4315 29.3333 17.7492 29.3333C17.978 29.3333 18.1497 29.2289 18.2492 29.0293C18.3527 28.8214 18.3471 28.7475 18.2015 28.4042C17.9788 27.8789 17.5706 27.275 17.1161 26.7986C16.999 26.6758 16.9031 26.5657 16.9031 26.554C16.9031 26.5423 17.0274 26.4512 17.1793 26.3516L17.4555 26.1705L17.5961 26.3689C17.6735 26.4781 17.8866 26.7058 18.0697 26.8751C18.5926 27.3586 19.1657 27.6028 19.8821 27.6475C20.7868 27.704 21.9903 27.4006 23.152 26.8233C23.7246 26.5387 23.9454 26.394 24.0349 26.2443C24.1275 26.0895 24.1263 25.8409 24.0321 25.684C23.8482 25.3777 22.8958 24.8312 22.1224 24.5883C21.6939 24.4537 20.9687 24.31 20.718 24.31C20.6391 24.31 20.5748 24.2978 20.575 24.2827C20.5752 24.2677 20.6803 24.1899 20.8087 24.1098C20.937 24.0297 21.2328 23.8292 21.4659 23.6641L21.8897 23.364L22.0845 23.5045C22.7381 23.976 23.7215 24.2728 24.6318 24.2734C25.2495 24.2738 25.8223 24.1036 26.3738 23.7559C26.9152 23.4145 27.5858 22.6732 27.9823 21.978C28.3112 21.4014 28.2229 21.1129 27.6373 20.8503C27.2276 20.6665 26.5687 20.4642 26.149 20.3931C25.7087 20.3186 25.0508 20.3415 24.6848 20.4441C24.5449 20.4833 24.4358 20.5051 24.4423 20.4926C24.449 20.48 24.5604 20.265 24.6899 20.0147L24.9254 19.5597L25.0635 19.5779C25.1394 19.5879 25.4376 19.5951 25.726 19.5938C26.216 19.5917 26.2738 19.5838 26.6044 19.4738C27.4174 19.2034 27.9529 18.7179 28.3988 17.847C28.7449 17.1708 29.0022 16.3963 29.2144 15.3918C29.3615 14.6953 29.3635 14.66 29.2678 14.4553C29.1741 14.2546 29.0053 14.1545 28.7607 14.1544C28.2423 14.1543 26.8208 14.6779 26.1462 15.1175C26.0069 15.2083 25.8848 15.2826 25.875 15.2826C25.8652 15.2826 25.8572 15.1058 25.8572 14.8898V14.497L26.0726 14.3949C26.4077 14.2362 26.8656 13.9276 27.1631 13.66C27.6133 13.2551 27.9252 12.7665 28.076 12.2302C28.1931 11.8134 28.1921 10.8727 28.0738 10.2993C27.9612 9.75351 27.7446 9.12013 27.5253 8.69603C27.2514 8.16614 27.1844 8.07801 26.9921 7.99538C26.668 7.85611 26.4282 7.96863 26.0236 8.44988C25.6095 8.94246 25.2874 9.52928 25.0519 10.2204L24.9473 10.5274L24.8309 10.3114L24.7145 10.0955L24.6927 8.83966C24.6731 7.70738 24.6631 7.55581 24.5905 7.29882C24.3601 6.48322 23.9298 5.77202 23.2152 5.02577C22.8875 4.68363 22.2727 4.1714 22.0654 4.0678C21.7863 3.92835 21.4875 4.01171 21.3005 4.28126C21.0913 4.58295 20.806 5.39112 20.7002 5.9822C20.6264 6.39447 20.649 7.21633 20.7438 7.56563C20.8332 7.89502 21.0571 8.35004 21.293 8.68165C21.7022 9.25682 22.5078 9.94101 23.3278 10.4097L23.7144 10.6307L23.8866 10.9912C23.9814 11.1895 24.0589 11.3612 24.0589 11.3728C24.0589 11.3843 24.0125 11.3588 23.9558 11.3159C23.6164 11.0595 22.9939 10.6896 22.5228 10.4644C22.0656 10.2458 21.9495 10.2047 21.7893 10.2047C21.6405 10.2047 21.5703 10.226 21.4668 10.3028C21.2681 10.45 21.2116 10.5988 21.2116 10.9746C21.2118 12.7741 21.829 14.1373 23.0136 14.9547C23.3503 15.1871 24.0839 15.5408 24.4211 15.6334L24.668 15.7012L24.6448 16.0652C24.6209 16.4385 24.5357 17.0115 24.4671 17.2613L24.4284 17.4017L24.2702 17.1318C23.9386 16.5665 23.2917 15.8924 23.0361 15.8458C22.7854 15.8001 22.6336 15.8538 22.4253 16.0618C21.9118 16.5748 21.4892 17.3985 21.3031 18.2493C21.2128 18.6622 21.2105 19.4806 21.2989 19.7963C21.3998 20.1566 21.737 20.7969 22.0131 21.1524C22.1492 21.3276 22.2606 21.4854 22.2606 21.5031C22.2606 21.5926 20.9317 22.7034 20.8822 22.6553C20.8754 22.6487 20.9125 22.49 20.9645 22.3027C21.1067 21.7917 21.2209 21.1154 21.204 20.886C21.1782 20.5367 20.9623 20.3413 20.604 20.3431C20.3822 20.3442 19.8659 20.4596 19.3896 20.6144C18.0848 21.0386 17.1653 21.7413 16.8132 22.5833C16.5909 23.1149 16.5272 23.9692 16.6574 24.674C16.6925 24.8642 16.73 25.069 16.7407 25.1292C16.7589 25.2319 16.738 25.2545 16.3968 25.5023C16.197 25.6473 16.0186 25.7661 16.0003 25.7661C15.9819 25.7661 15.8357 25.6719 15.6754 25.5567C15.515 25.4416 15.3474 25.3229 15.303 25.2928L15.2221 25.2382L15.3016 24.9106C15.3674 24.6397 15.3815 24.4635 15.3835 23.8914C15.3855 23.2772 15.3763 23.1681 15.3012 22.9162C15.0626 22.1162 14.5317 21.5202 13.6313 21.0415C12.9791 20.6948 12.0422 20.398 11.4708 20.3573C11.2293 20.34 11.1726 20.3478 11.0677 20.4122C10.8798 20.5277 10.7967 20.6891 10.7965 20.9389C10.7964 21.2077 10.9164 21.8963 11.0381 22.3245C11.089 22.5038 11.1252 22.6558 11.1186 22.6623C11.0916 22.6885 10.3815 22.1267 10.0589 21.824L9.71491 21.5011L9.97472 21.1686C10.6051 20.3619 10.8481 19.6145 10.7612 18.7498C10.6936 18.0778 10.5507 17.5911 10.2496 17.0078C10.0558 16.6322 9.65541 16.0936 9.46532 15.9528C9.31284 15.8398 9.09352 15.8044 8.91013 15.8632C8.64095 15.9495 7.97884 16.6689 7.71872 17.1577C7.64967 17.2874 7.5831 17.3936 7.57081 17.3937C7.52746 17.394 7.3649 16.3601 7.34302 15.945L7.33092 15.7155L7.61191 15.6242C8.61191 15.2993 9.45397 14.7189 9.93917 14.0204C10.4823 13.2384 10.722 12.4387 10.7774 11.2236C10.8014 10.699 10.7989 10.6716 10.7151 10.5141C10.605 10.3074 10.3635 10.1731 10.1487 10.1992C9.85431 10.2348 8.68444 10.8422 8.17155 11.2257C8.04919 11.3171 7.94905 11.3787 7.94901 11.3625C7.94901 11.3464 8.02765 11.1737 8.12379 10.9789L8.2986 10.6246L8.62023 10.4405C9.19782 10.1099 9.64575 9.77611 10.1085 9.33137C10.8201 8.64754 11.157 8.08296 11.304 7.32812C11.3978 6.84617 11.3625 6.15645 11.2153 5.59693C11.0824 5.0918 10.8247 4.44761 10.6752 4.24712C10.5005 4.01284 10.2014 3.93505 9.94599 4.05743Z" fill="url(#paint0_linear_201_182)"/>
<defs>
<linearGradient id="paint0_linear_201_182" x1="4.5" y1="6" x2="24.5" y2="29" gradientUnits="userSpaceOnUse">
<stop stop-color="#187BE4"/>
<stop offset="1" stop-color="#E70EAA"/>
</linearGradient>
</defs>
</svg>
